<svg width="20" height="20" viewBox="0 0 20 20" fill="none" xmlns="http://www.w3.org/2000/svg">
<path d="M0.75 10H0H0.75ZM10 19.25V20V19.25ZM10 0.75V0V0.75ZM0.75 10H0C0 12.6522 1.05357 15.1957 2.92893 17.0711L3.45926 16.5407L3.98959 16.0104C2.39553 14.4163 1.5 12.2543 1.5 10H0.75ZM3.45926 16.5407L2.92893 17.0711C4.8043 18.9464 7.34784 20 10 20V19.25V18.5C7.74566 18.5 5.58365 17.6045 3.98959 16.0104L3.45926 16.5407ZM10 19.25H10.75V0.75H10H9.25V19.25H10ZM10 0.75V0C7.34784 0 4.8043 1.05357 2.92893 2.92893L3.45926 3.45926L3.98959 3.98959C5.58365 2.39553 7.74566 1.5 10 1.5V0.75ZM3.45926 3.45926L2.92893 2.92893C1.05357 4.8043 0 7.34784 0 10H0.75H1.5C1.5 7.74566 2.39553 5.58365 3.98959 3.98959L3.45926 3.45926ZM10 19.25V20C12.6522 20 15.1957 18.9464 17.0711 17.0711L16.5407 16.5407L16.0104 16.0104C14.4163 17.6045 12.2543 18.5 10 18.5V19.25ZM16.5407 16.5407L17.0711 17.0711C18.9464 15.1957 20 12.6522 20 10H19.25H18.5C18.5 12.2543 17.6045 14.4163 16.0104 16.0104L16.5407 16.5407ZM19.25 10H20C20 7.34784 18.9464 4.8043 17.0711 2.92893L16.5407 3.45926L16.0104 3.98959C17.6045 5.58365 18.5 7.74566 18.5 10H19.25ZM16.5407 3.45926L17.0711 2.92893C15.1957 1.05357 12.6522 0 10 0V0.75V1.5C12.2543 1.5 14.4163 2.39553 16.0104 3.98959L16.5407 3.45926Z" fill="white"/>
</svg>
